<svg xmlns="http://www.w3.org/2000/svg" viewBox="0 0 192 192" width="192" height="192">
  <rect width="192" height="192" rx="36" fill="#071528"/>
  <rect x="8" y="8" width="176" height="176" rx="30" fill="#0a1e38"/>
  <circle cx="96" cy="96" r="72" fill="none" stroke="#1577C4" stroke-width="3" opacity="0.4"/>
  <!-- Helicopter rotor blades -->
  <ellipse cx="96" cy="56" rx="58" ry="8" rx="58" ry="7" fill="none" stroke="#1577C4" stroke-width="4" transform="rotate(-20 96 56)"/>
  <ellipse cx="96" cy="56" rx="58" ry="7" fill="none" stroke="#2a90df" stroke-width="3" transform="rotate(20 96 56)"/>
  <!-- Fuselage -->
  <path d="M58,72 Q96,64 134,72 L138,96 Q120,108 96,110 Q72,108 54,96 Z" fill="#1577C4" opacity="0.9"/>
  <!-- Tail -->
  <path d="M138,88 L168,78 L164,90 L138,96 Z" fill="#0f5a9a"/>
  <!-- Tail rotor -->
  <circle cx="166" cy="84" r="10" fill="none" stroke="#2a90df" stroke-width="2.5"/>
  <!-- Cabin window -->
  <path d="M74,76 Q96,70 118,76 L116,90 Q96,94 76,90 Z" fill="#38bdf8" opacity="0.35"/>
  <!-- Landing gear -->
  <line x1="70" y1="110" x2="66" y2="126" stroke="#1577C4" stroke-width="3" stroke-linecap="round"/>
  <line x1="122" y1="110" x2="126" y2="126" stroke="#1577C4" stroke-width="3" stroke-linecap="round"/>
  <line x1="58" y1="126" x2="84" y2="126" stroke="#1577C4" stroke-width="3" stroke-linecap="round"/>
  <line x1="108" y1="126" x2="134" y2="126" stroke="#1577C4" stroke-width="3" stroke-linecap="round"/>
  <!-- Hub -->
  <circle cx="96" cy="56" r="7" fill="#1577C4"/>
  <circle cx="96" cy="56" r="4" fill="#2a90df"/>
  <!-- Text -->
  <text x="96" y="152" text-anchor="middle" font-family="'Barlow Condensed','Inter',sans-serif" font-size="14" font-weight="800" fill="#e8f4ff" letter-spacing="1">AW109E</text>
  <text x="96" y="168" text-anchor="middle" font-family="'Inter',sans-serif" font-size="9" font-weight="600" fill="#7daed4" letter-spacing="1.5">FSTD RAAC 60</text>
</svg>
