<svg xmlns="http://www.w3.org/2000/svg" viewBox="0 0 512 512" width="512" height="512">
  <rect width="512" height="512" rx="96" fill="#071528"/>
  <rect x="20" y="20" width="472" height="472" rx="82" fill="#0a1e38"/>
  <circle cx="256" cy="256" r="200" fill="none" stroke="#1577C4" stroke-width="6" opacity="0.3"/>
  <!-- Rotor blades -->
  <ellipse cx="256" cy="148" rx="158" ry="18" fill="none" stroke="#1577C4" stroke-width="10" transform="rotate(-20 256 148)"/>
  <ellipse cx="256" cy="148" rx="158" ry="18" fill="none" stroke="#2a90df" stroke-width="7" transform="rotate(20 256 148)"/>
  <!-- Fuselage body -->
  <path d="M148,192 Q256,168 364,192 L372,256 Q320,292 256,296 Q192,292 140,256 Z" fill="#1577C4" opacity="0.9"/>
  <!-- Tail boom -->
  <path d="M364,236 L452,205 L444,240 L364,256 Z" fill="#0f5a9a"/>
  <!-- Tail rotor -->
  <circle cx="450" cy="222" r="28" fill="none" stroke="#2a90df" stroke-width="7"/>
  <line x1="422" y1="222" x2="478" y2="222" stroke="#2a90df" stroke-width="5" stroke-linecap="round"/>
  <line x1="450" y1="194" x2="450" y2="250" stroke="#2a90df" stroke-width="5" stroke-linecap="round"/>
  <!-- Cabin window -->
  <path d="M192,200 Q256,184 320,200 L316,240 Q256,256 196,240 Z" fill="#38bdf8" opacity="0.35"/>
  <!-- Landing gear -->
  <line x1="182" y1="296" x2="172" y2="340" stroke="#1577C4" stroke-width="8" stroke-linecap="round"/>
  <line x1="330" y1="296" x2="340" y2="340" stroke="#1577C4" stroke-width="8" stroke-linecap="round"/>
  <line x1="148" y1="340" x2="220" y2="340" stroke="#1577C4" stroke-width="8" stroke-linecap="round"/>
  <line x1="292" y1="340" x2="364" y2="340" stroke="#1577C4" stroke-width="8" stroke-linecap="round"/>
  <!-- Hub -->
  <circle cx="256" cy="148" r="20" fill="#1577C4"/>
  <circle cx="256" cy="148" r="11" fill="#2a90df"/>
  <!-- Text -->
  <text x="256" y="406" text-anchor="middle" font-family="'Barlow Condensed','Inter',sans-serif" font-size="40" font-weight="800" fill="#e8f4ff" letter-spacing="2">AW109E</text>
  <text x="256" y="448" text-anchor="middle" font-family="'Inter',sans-serif" font-size="22" font-weight="600" fill="#7daed4" letter-spacing="3">FSTD · RAAC 60</text>
  <text x="256" y="480" text-anchor="middle" font-family="'Inter',sans-serif" font-size="16" font-weight="500" fill="#4d87b8" letter-spacing="2">MODENA CEAC · 6XSIM</text>
</svg>
